# xmcd
#
# Track frame offsets:
#	150
#	24876
#	45564
#	67683
#	86218
#	104425
#	125864
#	142881
#	174516
#	195105
#	213857
#	232935
#	254563
#	275988
#	294240
#	311852
#
# Disc length: 4712 seconds
#
# Revision: 1
# Processed by: cddbd v1.5.2PL0 Copyright (c) Steve Scherf et al.
# Submitted via: EZCDAudioConverter 7.0.6.1
#
DISCID=e2126610
DTITLE=Various Artist - Crystal Visions... The Very Best Of
DYEAR=2007
DGENRE=
TTITLE0=Stevie Nicks - Edge Of Seventeen
TTITLE1=Stevie Nicks - I Can't Wait
TTITLE2=Stevie Nicks - Sorcerer
TTITLE3=Stevie Nicks - If Anyone Falls In Love
TTITLE4=Stevie Nicks and Tom Petty - Stop Draggin' My Heart Around
TTITLE5=Fleetwood Mac - Silver Springs
TTITLE6=Stevie Nicks - Dreams [Deep Dish Remix]
TTITLE7=Stevie Nicks - Rhiannon [Live]
TTITLE8=Stevie Nicks - Rooms On Fire
TTITLE9=Stevie Nicks - Talk To Me
TTITLE10=Stevie Nicks and The Melbourne Symphony Orchestra - Landslide [Live]
TTITLE11=Stevie Nicks - Stand Back
TTITLE12=Stevie Nicks - Planets Of The Universe
TTITLE13=Stevie Nicks - Rock And Roll [Live]
TTITLE14=Stevie Nicks and Don Henley - Leather And Lace
TTITLE15=Stevie Nicks and The Melbourne Symphony Orchestra - Edge Of Seventeen [
TTITLE15=Live]
EXTD=
EXTT0=
EXTT1=
EXTT2=
EXTT3=
EXTT4=
EXTT5=
EXTT6=
EXTT7=
EXTT8=
EXTT9=
EXTT10=
EXTT11=
EXTT12=
EXTT13=
EXTT14=
EXTT15=
PLAYORDER=
